<svg width="352" height="216" viewBox="0 0 352 216" fill="none" xmlns="http://www.w3.org/2000/svg">
<path d="M1 103.5H351.164" stroke="#F5F5F5" stroke-width="1.13139"/>
<path d="M67 60L67 181" stroke="#F5F5F5" stroke-width="1.13139"/>
<path d="M280 54L280 181" stroke="#F5F5F5" stroke-width="1.13139"/>
<path d="M20.7993 26L20.7993 181" stroke="#F5F5F5" stroke-width="1.13139"/>
<path d="M313.828 26L313.828 181" stroke="#F5F5F5" stroke-width="1.13139"/>
<path d="M115 35L115 148" stroke="#F5F5F5" stroke-width="1.13139"/>
<path d="M233.5 26L233.5 147.5" stroke="#F5F5F5" stroke-width="1.13139"/>
<path d="M1 64.4672H351.164" stroke="#F5F5F5" stroke-width="1.13139"/>
<path d="M161 64L161 181" stroke="#F5F5F5" stroke-width="1.13139" stroke-linejoin="round"/>
<path d="M1 136.876H351.164" stroke="#F5F5F5" stroke-width="1.13139"/>
<path d="M2 170H234" stroke="#F5F5F5" stroke-width="1.13139" stroke-linejoin="round"/>
<circle cx="21" cy="64" r="10" fill="#F3EFFD"/>
<path fill-rule="evenodd" clip-rule="evenodd" d="M18.5491 61.0833C18.4809 61.009 18.4441 60.9112 18.4464 60.8104C18.4487 60.7093 18.4902 60.6131 18.5621 60.5421L19.1537 59.9504C19.2286 59.8764 19.3297 59.8348 19.435 59.8348C19.5403 59.8348 19.6413 59.8764 19.7162 59.9504L20.8491 61.0833H21.1471L22.28 59.9504C22.3549 59.8764 22.4559 59.8348 22.5612 59.8348C22.6665 59.8348 22.7676 59.8764 22.8425 59.9504L23.4341 60.5421C23.584 60.6919 23.5883 60.9291 23.4471 61.0833H24.1253C24.7378 61.0833 24.9587 61.4583 24.9587 61.9166V62.3333C24.9587 62.7916 24.7378 63.1666 24.1253 63.1666H17.8753C17.2378 63.1666 17.042 62.7916 17.042 62.3333V61.9166C17.042 61.4583 17.2378 61.0833 17.8753 61.0833H18.5491ZM23.0756 63.5833C23.0783 63.5833 23.081 63.5833 23.0837 63.5833H23.917C24.1462 63.5833 24.3337 63.7708 24.3337 63.9999V66.4999C24.3337 67.4208 23.5878 68.1666 22.667 68.1666H19.3337C18.4128 68.1666 17.667 67.4208 17.667 66.4999V63.9999C17.667 63.7708 17.8545 63.5833 18.0837 63.5833H18.9045C18.9072 63.5833 18.9099 63.5833 18.9125 63.5833L23.0756 63.5833Z" fill="#9D85FF"/>
<circle cx="68" cy="103" r="12" fill="#C4ECFF"/>
<circle cx="21.5" cy="170.5" r="2.5" fill="#6E4BFF"/>
<path d="M68 102.854C68.7294 102.854 69.429 102.545 69.9447 101.996C70.4605 101.448 70.7503 100.703 70.7503 99.9268C70.7503 99.1506 70.4605 98.4061 69.9447 97.8572C69.429 97.3084 68.7294 97 68 97C67.2706 97 66.571 97.3084 66.0553 97.8572C65.5395 98.4061 65.2497 99.1506 65.2497 99.9268C65.2497 100.703 65.5395 101.448 66.0553 101.996C66.571 102.545 67.2706 102.854 68 102.854ZM68 104.317C65.2442 104.317 63 106.284 63 108.707C63 108.871 63.121 109 63.275 109H72.725C72.879 109 73 108.871 73 108.707C73 106.284 70.7558 104.317 68 104.317Z" fill="#52B9EB"/>
<circle cx="280" cy="103" r="16" fill="#F3EFFD"/>
<g clip-path="url(#clip0_33_126)">
<path d="M280 105.467V105.54C280 105.727 279.853 105.873 279.666 105.873H273.666C273.48 105.873 273.333 105.727 273.333 105.54V105.467C273.333 104.293 273.626 104 274.813 104H278.52C279.706 104 280 104.293 280 105.467ZM273.666 106.539C273.48 106.539 273.333 106.686 273.333 106.873V108.199C273.333 109.373 273.626 109.666 274.813 109.666H278.52C279.706 109.666 280 109.373 280 108.199V106.873C280 106.686 279.853 106.539 279.666 106.539H273.666Z" fill="#9D85FF"/>
<path d="M286.666 105C286.666 107.58 284.58 109.667 282 109.667L282.7 108.5M273.333 101C273.333 98.4199 275.42 96.3333 278 96.3333L277.3 97.4999" stroke="#9D85FF" stroke-linecap="round" stroke-linejoin="round"/>
<path d="M284.333 102.333C284.727 102.333 285.117 102.256 285.481 102.105C285.845 101.954 286.176 101.733 286.454 101.455C286.733 101.176 286.954 100.845 287.105 100.481C287.255 100.117 287.333 99.7272 287.333 99.3333C287.333 98.9393 287.255 98.5492 287.105 98.1852C286.954 97.8212 286.733 97.4905 286.454 97.2119C286.176 96.9334 285.845 96.7124 285.481 96.5616C285.117 96.4108 284.727 96.3333 284.333 96.3333C283.537 96.3333 282.774 96.6493 282.212 97.2119C281.649 97.7745 281.333 98.5376 281.333 99.3333C281.333 100.129 281.649 100.892 282.212 101.455C282.774 102.017 283.537 102.333 284.333 102.333Z" fill="#9D85FF"/>
</g>
<circle cx="314.5" cy="64.5" r="10.5" fill="#E0F7F4"/>
<g filter="url(#filter0_d_33_126)">
<path d="M188.319 149.718C181.243 153.773 172.547 153.773 165.471 149.718L143.404 137.069C136.261 132.975 131.855 125.371 131.855 117.138L131.855 92.1298C131.855 83.8966 136.261 76.2929 143.404 72.1988L165.471 59.5504C172.547 55.4947 181.243 55.4947 188.319 59.5504L210.386 72.1988C217.529 76.2929 221.935 83.8966 221.935 92.1298L221.935 117.138C221.935 125.371 217.529 132.975 210.386 137.069L188.319 149.718Z" fill="url(#paint0_linear_33_126)"/>
</g>
<path d="M194.643 81.8395C194.216 81.7845 193.792 81.7571 193.381 81.7546H193.358C190.426 81.7546 187.605 82.8711 185.619 84.822C183.822 86.588 182.829 88.921 182.829 91.3914V113.293C182.829 117.06 179.97 120.017 176.304 120.065C176.235 120.052 176.166 120.052 176.1 120.065C172.444 120.005 169.598 117.052 169.598 113.293V91.3839C169.598 85.981 164.974 81.7471 159.071 81.7471C158.678 81.7471 158.31 81.782 157.809 81.8445C157.52 81.8795 157.302 82.1243 157.302 82.4115L157.294 116.198C157.378 121.761 162.017 126.284 167.635 126.284C171.119 126.284 174.321 124.566 176.21 121.738C178.099 124.563 181.3 126.284 184.784 126.284C190.405 126.284 195.042 121.758 195.118 116.19L195.151 82.4065C195.151 82.1193 194.935 81.877 194.645 81.8395H194.643ZM173.186 122.253C173.155 122.273 172.401 122.752 170.588 122.752H170.535C169.344 122.747 168.174 122.52 167.059 122.076C166.305 121.776 164.906 121.031 163.984 119.398C163.228 118.056 162.844 116.393 162.844 114.449V91.5163C162.844 88.911 162.555 87.8319 161.905 86.3981C161.417 85.3216 160.513 84.5372 160.018 84.165C159.962 84.1226 159.945 84.0476 159.978 83.9852C160.011 83.9227 160.084 83.8953 160.153 83.9152C160.227 83.9402 161.945 84.5172 163.012 86.3332C163.842 87.7495 164.299 89.5879 164.299 91.5138V114.452C164.299 116.051 164.611 117.422 165.223 118.524C165.754 119.475 166.556 120.25 167.613 120.822C168.984 121.566 171.147 122.026 173.102 121.991H173.104C173.168 121.991 173.224 122.031 173.244 122.09C173.262 122.15 173.239 122.218 173.186 122.253ZM192.66 84.165C192.165 84.5372 191.261 85.3216 190.773 86.3981C190.123 87.8319 189.834 88.911 189.834 91.5163V114.454C189.834 116.395 189.451 118.061 188.694 119.403C187.772 121.036 186.373 121.781 185.619 122.081C184.505 122.523 183.334 122.75 182.143 122.757H182.09C180.277 122.757 179.523 122.278 179.493 122.258C179.439 122.223 179.416 122.158 179.434 122.095C179.452 122.036 179.51 121.996 179.574 121.996H179.576C181.539 122.033 183.695 121.571 185.066 120.827C186.122 120.255 186.927 119.48 187.455 118.529C188.069 117.424 188.379 116.056 188.379 114.457V91.5163C188.379 89.5904 188.836 87.752 189.666 86.3357C190.733 84.5172 192.452 83.9402 192.525 83.9177C192.594 83.8978 192.668 83.9252 192.701 83.9877C192.734 84.0501 192.716 84.1251 192.66 84.1675V84.165Z" fill="white"/>
<circle cx="115" cy="64" r="4" fill="#6E4BFF"/>
<path d="M319.96 67.3746C319.795 68.7046 318.705 69.7946 317.375 69.9596C316.57 70.0596 315.82 69.8396 315.235 69.4096C314.9 69.1646 314.98 68.6446 315.38 68.5246C316.123 68.2976 316.799 67.8916 317.348 67.3424C317.897 66.7931 318.303 66.1174 318.53 65.3746C318.65 64.9796 319.17 64.8996 319.415 65.2296C319.862 65.8494 320.057 66.6163 319.96 67.3746Z" fill="#29CCB4"/>
<path d="M313.995 60C311.79 60 310 61.79 310 63.995C310 66.2 311.79 67.99 313.995 67.99C316.2 67.99 317.99 66.2 317.99 63.995C317.985 61.79 316.2 60 313.995 60ZM313.525 63.435L314.73 63.855C315.165 64.01 315.375 64.315 315.375 64.785C315.375 65.325 314.945 65.77 314.42 65.77H314.375V65.795C314.375 66 314.205 66.17 314 66.17C313.795 66.17 313.625 66 313.625 65.795V65.765C313.07 65.74 312.625 65.275 312.625 64.695C312.625 64.49 312.795 64.32 313 64.32C313.205 64.32 313.375 64.49 313.375 64.695C313.375 64.875 313.505 65.02 313.665 65.02H314.415C314.53 65.02 314.62 64.915 314.62 64.785C314.62 64.61 314.59 64.6 314.475 64.56L313.27 64.14C312.84 63.99 312.625 63.685 312.625 63.21C312.625 62.67 313.055 62.225 313.58 62.225H313.625V62.205C313.625 62 313.795 61.83 314 61.83C314.205 61.83 314.375 62 314.375 62.205V62.235C314.93 62.26 315.375 62.725 315.375 63.305C315.375 63.51 315.205 63.68 315 63.68C314.795 63.68 314.625 63.51 314.625 63.305C314.625 63.125 314.495 62.98 314.335 62.98H313.585C313.47 62.98 313.38 63.085 313.38 63.215C313.375 63.385 313.405 63.395 313.525 63.435Z" fill="#29CCB4"/>
<defs>
<filter id="filter0_d_33_126" x="76.0693" y="0.723028" width="208.773" height="214.944" filterUnits="userSpaceOnUse" color-interpolation-filters="sRGB">
<feFlood flood-opacity="0" result="BackgroundImageFix"/>
<feColorMatrix in="SourceAlpha" type="matrix" values="0 0 0 0 0 0 0 0 0 0 0 0 0 0 0 0 0 0 127 0" result="hardAlpha"/>
<feOffset dx="3.56079" dy="3.56079"/>
<feGaussianBlur stdDeviation="29.6732"/>
<feColorMatrix type="matrix" values="0 0 0 0 0.431373 0 0 0 0 0.294118 0 0 0 0 1 0 0 0 0.5 0"/>
<feBlend mode="normal" in2="BackgroundImageFix" result="effect1_dropShadow_33_126"/>
<feBlend mode="normal" in="SourceGraphic" in2="effect1_dropShadow_33_126" result="shape"/>
</filter>
<linearGradient id="paint0_linear_33_126" x1="240.164" y1="97.0206" x2="48.7579" y2="97.0206" gradientUnits="userSpaceOnUse">
<stop offset="0.665" stop-color="#6E4BFF"/>
<stop offset="1" stop-color="#9D85FF"/>
</linearGradient>
<clipPath id="clip0_33_126">
<rect width="16" height="16" fill="white" transform="translate(272 95)"/>
</clipPath>
</defs>
</svg>
